<svg width="1029" height="218" viewBox="0 0 1029 218" fill="none" xmlns="http://www.w3.org/2000/svg">
<path d="M255.856 16.56V23.984H245.104V62H237.232V23.984H226.48V16.56H255.856ZM274.358 28.976C276.214 28.976 277.558 29.68 278.262 30.384L277.11 37.232C276.47 36.848 275.19 36.4 273.91 36.4C269.686 36.4 267.382 40.752 267.382 47.6V62H259.51V29.616H266.934L267.254 33.136C269.302 30.64 271.67 28.976 274.358 28.976ZM281.12 29.616H289.568L299.104 52.208L308.576 29.616H317.024L296.928 76.72H288.608L294.88 61.936L281.12 29.616ZM341.308 29.616H349.756L359.292 52.208L368.764 29.616H377.212L357.116 76.72H348.796L355.068 61.936L341.308 29.616ZM395.606 62.64C385.43 62.64 378.198 55.088 378.198 45.808C378.198 36.528 385.43 28.976 395.606 28.976C405.718 28.976 412.886 36.528 412.886 45.808C412.886 55.088 405.718 62.64 395.606 62.64ZM395.606 55.216C401.11 55.216 405.014 50.928 405.014 45.808C405.014 40.688 401.11 36.4 395.606 36.4C390.038 36.4 386.07 40.688 386.07 45.808C386.07 50.928 390.038 55.216 395.606 55.216ZM441.442 29.616H449.314V62H441.89L441.506 57.2C438.37 60.336 434.338 62.64 429.41 62.64C421.602 62.64 417.506 57.584 417.506 48.752V29.616H425.378V45.104C425.378 52.656 428.13 55.216 432.482 55.216C438.114 55.216 441.442 50.8 441.442 45.36V29.616ZM470.921 28.976C472.777 28.976 474.121 29.68 474.825 30.384L473.673 37.232C473.033 36.848 471.753 36.4 470.473 36.4C466.249 36.4 463.945 40.752 463.945 47.6V62H456.073V29.616H463.497L463.817 33.136C465.865 30.64 468.233 28.976 470.921 28.976ZM505.695 14V62H497.823V14H505.695ZM536.379 29.616H544.251V62H536.827L536.443 57.2C533.307 60.336 529.275 62.64 524.347 62.64C516.539 62.64 512.443 57.584 512.443 48.752V29.616H520.315V45.104C520.315 52.656 523.067 55.216 527.419 55.216C533.051 55.216 536.379 50.8 536.379 45.36V29.616ZM574.999 39.792C572.439 37.36 569.751 36.4 566.743 36.4C561.943 36.4 557.143 40.176 557.143 45.808C557.143 51.44 561.943 55.216 566.743 55.216C569.751 55.216 572.439 54.192 574.999 51.76V59.312C572.823 61.232 569.623 62.64 565.463 62.64C555.863 62.64 548.823 54.96 548.823 45.808C548.823 36.72 555.863 28.976 565.463 28.976C569.623 28.976 572.823 30.384 574.999 32.304V39.792ZM614.597 29.616L599.877 43.696L614.597 62H604.805L594.309 49.008L589.445 53.616V62H581.573V14H589.445V43.056L603.589 29.616H614.597ZM641.814 25.072C639.574 25.072 637.782 23.28 637.782 21.04C637.782 18.8 639.574 17.008 641.814 17.008C644.054 17.008 645.846 18.8 645.846 21.04C645.846 23.28 644.054 25.072 641.814 25.072ZM645.782 29.616V62H637.91V29.616H645.782ZM672.977 28.976C680.785 28.976 684.881 34.032 684.881 42.864V62H677.009V46.512C677.009 38.96 674.257 36.4 669.905 36.4C664.401 36.4 661.137 40.56 660.945 45.808V62H653.073V29.616H660.497L660.881 34.416C664.017 31.28 668.113 28.976 672.977 28.976ZM728.436 29.616V37.04H721.268V62H713.396V37.04H708.34V29.616H713.396V20.016H721.268V29.616H728.436ZM753.414 28.976C761.222 28.976 765.318 34.032 765.318 42.864V62H757.446V46.512C757.446 38.96 754.694 36.4 750.342 36.4C744.838 36.4 741.574 40.56 741.382 45.808V62H733.51V14H741.382V34.352C744.518 31.28 748.55 28.976 753.414 28.976ZM802.519 46.192V48.24H778.007C778.199 52.208 781.207 55.664 786.903 55.664C790.999 55.664 793.623 53.488 794.903 51.248L801.815 52.016C800.855 56.432 795.799 62.64 786.839 62.64C776.855 62.64 770.135 55.088 770.135 45.616C770.135 36.592 776.535 28.976 786.327 28.976C796.311 28.976 802.519 36.912 802.519 46.192ZM786.327 35.952C781.527 35.952 778.199 39.088 778.007 42.8H794.647C794.391 39.216 791.255 35.952 786.327 35.952Z" fill="black"/>
<path d="M62.08 102.4V126.592H30.72V137.856H51.584V161.92H30.72V192H4.48V102.4H62.08ZM91.17 122.112C96.802 122.112 101.623 123.051 105.634 124.928C109.73 126.72 113.101 129.237 115.746 132.48C118.391 135.637 120.311 139.392 121.506 143.744C122.786 148.011 123.426 152.576 123.426 157.44C123.426 162.304 122.786 166.869 121.506 171.136C120.311 175.403 118.391 179.157 115.746 182.4C113.101 185.557 109.73 188.075 105.634 189.952C101.623 191.829 96.802 192.768 91.17 192.768C85.538 192.768 80.7167 191.829 76.706 189.952C72.6953 188.075 69.3673 185.557 66.722 182.4C64.0767 179.157 62.114 175.403 60.834 171.136C59.6393 166.869 59.042 162.304 59.042 157.44C59.042 152.576 59.6393 148.011 60.834 143.744C62.114 139.392 64.0767 135.637 66.722 132.48C69.3673 129.237 72.6953 126.72 76.706 124.928C80.7167 123.051 85.538 122.112 91.17 122.112ZM91.17 170.88C92.8767 170.88 94.2847 170.539 95.394 169.856C96.5887 169.088 97.5273 168.107 98.21 166.912C98.8927 165.717 99.362 164.309 99.618 162.688C99.9593 161.067 100.13 159.317 100.13 157.44C100.13 155.563 99.9593 153.813 99.618 152.192C99.362 150.485 98.8927 149.035 98.21 147.84C97.5273 146.645 96.5887 145.707 95.394 145.024C94.2847 144.256 92.8767 143.872 91.17 143.872C89.4633 143.872 88.0127 144.256 86.818 145.024C85.7087 145.707 84.8127 146.645 84.13 147.84C83.4473 149.035 82.978 150.485 82.722 152.192C82.466 153.813 82.338 155.563 82.338 157.44C82.338 161.195 82.978 164.395 84.258 167.04C85.538 169.6 87.842 170.88 91.17 170.88ZM153.666 132.736C154.946 130.517 156.311 128.768 157.762 127.488C159.298 126.123 160.834 125.099 162.37 124.416C163.906 123.648 165.442 123.136 166.978 122.88C168.514 122.624 169.965 122.496 171.33 122.496C172.695 122.496 173.89 122.581 174.914 122.752C175.938 122.837 176.706 122.88 177.218 122.88V145.536C172.013 145.536 167.831 146.219 164.674 147.584C161.602 148.864 159.213 150.656 157.506 152.96C155.885 155.264 154.818 157.995 154.306 161.152C153.879 164.309 153.666 167.68 153.666 171.264V192H129.474V122.88H153.666V132.736ZM205.398 165.12C205.398 167.68 206.251 169.387 207.958 170.24C209.75 171.093 211.755 171.52 213.974 171.52C215.169 171.52 216.278 171.435 217.302 171.264C218.326 171.093 219.265 170.923 220.118 170.752C221.142 170.581 222.081 170.368 222.934 170.112V190.72C220.203 191.573 217.387 192.256 214.486 192.768C211.67 193.28 208.897 193.536 206.166 193.536C202.753 193.536 199.51 193.067 196.438 192.128C193.451 191.189 190.806 189.611 188.502 187.392C186.283 185.173 184.491 182.272 183.126 178.688C181.846 175.019 181.206 170.496 181.206 165.12V102.4H205.398V122.88H217.942V142.464H205.398V165.12ZM290.289 122.88V192H266.225V183.168C264.518 186.667 262.129 189.269 259.057 190.976C256.07 192.683 252.87 193.536 249.457 193.536C246.897 193.536 244.337 193.024 241.777 192C239.217 190.891 236.913 189.269 234.865 187.136C232.902 185.003 231.281 182.315 230.001 179.072C228.806 175.744 228.209 171.904 228.209 167.552V123.008H252.401V156.16C252.401 159.659 253.126 162.304 254.577 164.096C256.113 165.888 257.777 166.784 259.569 166.784C261.276 166.784 262.812 165.931 264.177 164.224C265.542 162.432 266.225 159.701 266.225 156.032V122.88H290.289ZM323.041 132.48C324.748 129.067 327.094 126.507 330.081 124.8C333.153 123.008 336.396 122.112 339.809 122.112C342.369 122.112 344.929 122.624 347.489 123.648C350.049 124.672 352.31 126.251 354.273 128.384C356.236 130.432 357.814 133.035 359.009 136.192C360.289 139.349 360.929 143.061 360.929 147.328V191.872H336.865V158.72C336.865 155.477 336.097 153.045 334.561 151.424C333.11 149.717 331.489 148.864 329.697 148.864C327.99 148.864 326.454 149.675 325.089 151.296C323.724 152.917 323.041 155.435 323.041 158.848V192H298.849V122.88H323.041V132.48ZM401.233 170.496C402.684 170.837 404.39 171.008 406.353 171.008C409.34 171.008 412.241 170.539 415.057 169.6C417.958 168.661 420.476 167.296 422.609 165.504V187.52C420.305 189.227 417.318 190.592 413.649 191.616C409.98 192.64 405.969 193.152 401.617 193.152C397.521 193.152 393.34 192.555 389.073 191.36C384.892 190.165 381.094 188.203 377.681 185.472C374.353 182.656 371.622 178.987 369.489 174.464C367.356 169.856 366.289 164.181 366.289 157.44C366.289 151.211 367.27 145.877 369.233 141.44C371.281 137.003 373.926 133.376 377.169 130.56C380.412 127.659 384.038 125.525 388.049 124.16C392.145 122.795 396.241 122.112 400.337 122.112C403.921 122.112 407.377 122.624 410.705 123.648C414.033 124.587 416.977 125.952 419.537 127.744C422.182 129.536 424.273 131.755 425.809 134.4C427.345 136.96 428.113 139.904 428.113 143.232C428.113 146.133 427.388 148.992 425.937 151.808C424.486 154.539 422.524 157.141 420.049 159.616C417.66 162.005 414.801 164.139 411.473 166.016C408.23 167.893 404.817 169.387 401.233 170.496ZM390.481 157.44C390.481 157.867 390.481 158.336 390.481 158.848C390.481 159.275 390.566 159.701 390.737 160.128C392.614 159.872 394.364 159.445 395.985 158.848C397.692 158.165 399.185 157.355 400.465 156.416C401.745 155.392 402.726 154.155 403.409 152.704C404.177 151.253 404.561 149.547 404.561 147.584C404.561 146.389 404.049 145.408 403.025 144.64C402.086 143.872 400.892 143.488 399.441 143.488C398.417 143.488 397.35 143.744 396.241 144.256C395.217 144.683 394.278 145.451 393.425 146.56C392.572 147.669 391.846 149.12 391.249 150.912C390.737 152.704 390.481 154.88 390.481 157.44ZM462.92 147.2C462.92 137.984 463.987 130.389 466.12 124.416C468.253 118.443 471.027 113.749 474.44 110.336C477.853 106.837 481.651 104.405 485.832 103.04C490.099 101.675 494.323 100.992 498.504 100.992C501.832 100.992 505.032 101.291 508.104 101.888C511.176 102.485 513.907 103.211 516.296 104.064C518.771 104.917 520.819 105.813 522.44 106.752C524.147 107.605 525.171 108.331 525.512 108.928V131.328C524.915 130.987 523.891 130.475 522.44 129.792C521.075 129.109 519.411 128.427 517.448 127.744C515.571 126.976 513.523 126.336 511.304 125.824C509.085 125.312 506.867 125.056 504.648 125.056C502.515 125.056 500.467 125.397 498.504 126.08C496.541 126.763 494.792 127.957 493.256 129.664C491.72 131.285 490.483 133.547 489.544 136.448C488.691 139.264 488.264 142.848 488.264 147.2C488.264 151.552 488.691 155.179 489.544 158.08C490.483 160.896 491.72 163.157 493.256 164.864C494.792 166.485 496.541 167.637 498.504 168.32C500.467 169.003 502.515 169.344 504.648 169.344C506.867 169.344 509.085 169.088 511.304 168.576C513.523 167.979 515.571 167.339 517.448 166.656C519.411 165.973 521.075 165.291 522.44 164.608C523.891 163.925 524.915 163.413 525.512 163.072V185.472C525.171 185.984 524.189 186.667 522.568 187.52C520.947 188.373 518.899 189.227 516.424 190.08C514.035 190.848 511.304 191.531 508.232 192.128C505.16 192.725 501.96 193.024 498.632 193.024C494.451 193.024 490.227 192.384 485.96 191.104C481.693 189.739 477.853 187.349 474.44 183.936C471.112 180.523 468.339 175.872 466.12 169.984C463.987 164.011 462.92 156.416 462.92 147.2ZM562.17 122.112C567.802 122.112 572.623 123.051 576.634 124.928C580.73 126.72 584.101 129.237 586.746 132.48C589.391 135.637 591.311 139.392 592.506 143.744C593.786 148.011 594.426 152.576 594.426 157.44C594.426 162.304 593.786 166.869 592.506 171.136C591.311 175.403 589.391 179.157 586.746 182.4C584.101 185.557 580.73 188.075 576.634 189.952C572.623 191.829 567.802 192.768 562.17 192.768C556.538 192.768 551.717 191.829 547.706 189.952C543.695 188.075 540.367 185.557 537.722 182.4C535.077 179.157 533.114 175.403 531.834 171.136C530.639 166.869 530.042 162.304 530.042 157.44C530.042 152.576 530.639 148.011 531.834 143.744C533.114 139.392 535.077 135.637 537.722 132.48C540.367 129.237 543.695 126.72 547.706 124.928C551.717 123.051 556.538 122.112 562.17 122.112ZM562.17 170.88C563.877 170.88 565.285 170.539 566.394 169.856C567.589 169.088 568.527 168.107 569.21 166.912C569.893 165.717 570.362 164.309 570.618 162.688C570.959 161.067 571.13 159.317 571.13 157.44C571.13 155.563 570.959 153.813 570.618 152.192C570.362 150.485 569.893 149.035 569.21 147.84C568.527 146.645 567.589 145.707 566.394 145.024C565.285 144.256 563.877 143.872 562.17 143.872C560.463 143.872 559.013 144.256 557.818 145.024C556.709 145.707 555.813 146.645 555.13 147.84C554.447 149.035 553.978 150.485 553.722 152.192C553.466 153.813 553.338 155.563 553.338 157.44C553.338 161.195 553.978 164.395 555.258 167.04C556.538 169.6 558.842 170.88 562.17 170.88ZM630.17 122.112C635.802 122.112 640.623 123.051 644.634 124.928C648.73 126.72 652.101 129.237 654.746 132.48C657.391 135.637 659.311 139.392 660.506 143.744C661.786 148.011 662.426 152.576 662.426 157.44C662.426 162.304 661.786 166.869 660.506 171.136C659.311 175.403 657.391 179.157 654.746 182.4C652.101 185.557 648.73 188.075 644.634 189.952C640.623 191.829 635.802 192.768 630.17 192.768C624.538 192.768 619.717 191.829 615.706 189.952C611.695 188.075 608.367 185.557 605.722 182.4C603.077 179.157 601.114 175.403 599.834 171.136C598.639 166.869 598.042 162.304 598.042 157.44C598.042 152.576 598.639 148.011 599.834 143.744C601.114 139.392 603.077 135.637 605.722 132.48C608.367 129.237 611.695 126.72 615.706 124.928C619.717 123.051 624.538 122.112 630.17 122.112ZM630.17 170.88C631.877 170.88 633.285 170.539 634.394 169.856C635.589 169.088 636.527 168.107 637.21 166.912C637.893 165.717 638.362 164.309 638.618 162.688C638.959 161.067 639.13 159.317 639.13 157.44C639.13 155.563 638.959 153.813 638.618 152.192C638.362 150.485 637.893 149.035 637.21 147.84C636.527 146.645 635.589 145.707 634.394 145.024C633.285 144.256 631.877 143.872 630.17 143.872C628.463 143.872 627.013 144.256 625.818 145.024C624.709 145.707 623.813 146.645 623.13 147.84C622.447 149.035 621.978 150.485 621.722 152.192C621.466 153.813 621.338 155.563 621.338 157.44C621.338 161.195 621.978 164.395 623.258 167.04C624.538 169.6 626.842 170.88 630.17 170.88ZM716.09 159.744C717.285 160.853 718.479 162.005 719.674 163.2C720.869 164.309 722.106 165.333 723.386 166.272C724.666 167.125 725.989 167.851 727.354 168.448C728.805 168.96 730.341 169.216 731.962 169.216V193.28C726.33 193.28 721.594 192.469 717.754 190.848C713.999 189.227 710.842 187.264 708.282 184.96C705.722 182.656 703.546 180.267 701.754 177.792C700.047 175.232 698.383 173.056 696.762 171.264C695.482 171.947 694.458 172.757 693.69 173.696C693.007 174.549 692.666 175.616 692.666 176.896V192H668.474V102.4H692.666V147.584C696.762 146.645 700.047 144.171 702.522 140.16C704.997 136.149 706.234 130.389 706.234 122.88H728.378C728.378 127.744 728.037 132.096 727.354 135.936C726.757 139.776 725.861 143.189 724.666 146.176C723.557 149.163 722.277 151.765 720.826 153.984C719.375 156.203 717.797 158.123 716.09 159.744ZM750.259 119.424C746.76 119.424 743.774 118.229 741.299 115.84C738.91 113.451 737.715 110.507 737.715 107.008C737.715 103.509 738.91 100.565 741.299 98.176C743.774 95.7013 746.76 94.464 750.259 94.464C753.758 94.464 756.702 95.7013 759.091 98.176C761.48 100.565 762.675 103.509 762.675 107.008C762.675 110.507 761.48 113.451 759.091 115.84C756.702 118.229 753.758 119.424 750.259 119.424ZM738.099 191.872V122.88H762.291V191.872H738.099ZM803.233 170.496C804.684 170.837 806.39 171.008 808.353 171.008C811.34 171.008 814.241 170.539 817.057 169.6C819.958 168.661 822.476 167.296 824.609 165.504V187.52C822.305 189.227 819.318 190.592 815.649 191.616C811.98 192.64 807.969 193.152 803.617 193.152C799.521 193.152 795.34 192.555 791.073 191.36C786.892 190.165 783.094 188.203 779.681 185.472C776.353 182.656 773.622 178.987 771.489 174.464C769.356 169.856 768.289 164.181 768.289 157.44C768.289 151.211 769.27 145.877 771.233 141.44C773.281 137.003 775.926 133.376 779.169 130.56C782.412 127.659 786.038 125.525 790.049 124.16C794.145 122.795 798.241 122.112 802.337 122.112C805.921 122.112 809.377 122.624 812.705 123.648C816.033 124.587 818.977 125.952 821.537 127.744C824.182 129.536 826.273 131.755 827.809 134.4C829.345 136.96 830.113 139.904 830.113 143.232C830.113 146.133 829.388 148.992 827.937 151.808C826.486 154.539 824.524 157.141 822.049 159.616C819.66 162.005 816.801 164.139 813.473 166.016C810.23 167.893 806.817 169.387 803.233 170.496ZM792.481 157.44C792.481 157.867 792.481 158.336 792.481 158.848C792.481 159.275 792.566 159.701 792.737 160.128C794.614 159.872 796.364 159.445 797.985 158.848C799.692 158.165 801.185 157.355 802.465 156.416C803.745 155.392 804.726 154.155 805.409 152.704C806.177 151.253 806.561 149.547 806.561 147.584C806.561 146.389 806.049 145.408 805.025 144.64C804.086 143.872 802.892 143.488 801.441 143.488C800.417 143.488 799.35 143.744 798.241 144.256C797.217 144.683 796.278 145.451 795.425 146.56C794.572 147.669 793.846 149.12 793.249 150.912C792.737 152.704 792.481 154.88 792.481 157.44ZM907.928 102.4V159.488C907.928 165.291 906.989 170.24 905.112 174.336C903.235 178.432 900.76 181.803 897.688 184.448C894.616 187.093 891.117 189.013 887.192 190.208C883.352 191.403 879.384 192 875.288 192H863.896V167.808H875.288C876.995 167.808 878.488 166.955 879.768 165.248C881.048 163.456 881.688 161.536 881.688 159.488V126.592H870.552V102.4H907.928ZM972.94 153.6V192H948.748V185.088C946.529 187.733 943.927 189.696 940.94 190.976C938.039 192.256 935.095 192.896 932.108 192.896C929.633 192.896 927.244 192.469 924.94 191.616C922.636 190.763 920.588 189.525 918.796 187.904C917.089 186.197 915.681 184.107 914.572 181.632C913.548 179.072 913.036 176.128 913.036 172.8C913.036 168.533 913.932 165.12 915.724 162.56C917.601 160 919.905 158.037 922.636 156.672C925.452 155.221 928.396 154.197 931.468 153.6C934.625 152.917 937.484 152.363 940.044 151.936C942.604 151.509 944.609 151.04 946.06 150.528C947.511 150.016 947.98 149.12 947.468 147.84C945.932 144.939 942.945 143.488 938.508 143.488C934.071 143.488 928.652 144.811 922.252 147.456L917.26 127.36C921.441 125.653 925.623 124.373 929.804 123.52C934.071 122.581 938.209 122.112 942.22 122.112C946.487 122.112 950.455 122.709 954.124 123.904C957.879 125.013 961.121 126.848 963.852 129.408C966.668 131.883 968.887 135.125 970.508 139.136C972.129 143.061 972.94 147.883 972.94 153.6ZM948.748 165.76C946.615 165.76 944.695 165.803 942.988 165.888C941.367 165.888 939.959 166.101 938.764 166.528C937.655 166.955 936.801 167.637 936.204 168.576C935.607 169.515 935.308 170.923 935.308 172.8C935.308 174.251 935.905 175.488 937.1 176.512C938.38 177.451 939.788 177.92 941.324 177.92C942.945 177.92 944.481 177.323 945.932 176.128C947.383 174.848 948.321 172.715 948.748 169.728V165.76ZM1004.67 132.736C1005.95 130.517 1007.31 128.768 1008.76 127.488C1010.3 126.123 1011.83 125.099 1013.37 124.416C1014.91 123.648 1016.44 123.136 1017.98 122.88C1019.51 122.624 1020.96 122.496 1022.33 122.496C1023.7 122.496 1024.89 122.581 1025.91 122.752C1026.94 122.837 1027.71 122.88 1028.22 122.88V145.536C1023.01 145.536 1018.83 146.219 1015.67 147.584C1012.6 148.864 1010.21 150.656 1008.51 152.96C1006.88 155.264 1005.82 157.995 1005.31 161.152C1004.88 164.309 1004.67 167.68 1004.67 171.264V192H980.474V122.88H1004.67V132.736Z" fill="#001A26"/>
</svg>
